<svg width="14" height="14" viewBox="0 0 14 14" fill="none" xmlns="http://www.w3.org/2000/svg">
<path d="M6.47496 13.2708H4.02496C1.74413 13.2708 0.729126 12.2558 0.729126 9.97496V7.52496C0.729126 5.24413 1.74413 4.22913 4.02496 4.22913H6.47496C8.75579 4.22913 9.77079 5.24413 9.77079 7.52496V9.97496C9.77079 12.2558 8.75579 13.2708 6.47496 13.2708ZM4.02496 5.10413C2.21663 5.10413 1.60413 5.71663 1.60413 7.52496V9.97496C1.60413 11.7833 2.21663 12.3958 4.02496 12.3958H6.47496C8.28329 12.3958 8.89579 11.7833 8.89579 9.97496V7.52496C8.89579 5.71663 8.28329 5.10413 6.47496 5.10413H4.02496Z" fill="#1993AB"/>
<path d="M9.97496 9.77079H9.33329C9.09413 9.77079 8.89579 9.57246 8.89579 9.33329V7.52496C8.89579 5.71663 8.28329 5.10413 6.47496 5.10413H4.66663C4.42746 5.10413 4.22913 4.90579 4.22913 4.66663V4.02496C4.22913 1.74413 5.24413 0.729126 7.52496 0.729126H9.97496C12.2558 0.729126 13.2708 1.74413 13.2708 4.02496V6.47496C13.2708 8.75579 12.2558 9.77079 9.97496 9.77079ZM9.77079 8.89579H9.97496C11.7833 8.89579 12.3958 8.28329 12.3958 6.47496V4.02496C12.3958 2.21663 11.7833 1.60413 9.97496 1.60413H7.52496C5.71663 1.60413 5.10413 2.21663 5.10413 4.02496V4.22913H6.47496C8.75579 4.22913 9.77079 5.24413 9.77079 7.52496V8.89579Z" fill="#1993AB"/>
</svg>
