<svg width="12" height="13" viewBox="0 0 12 13" fill="none" xmlns="http://www.w3.org/2000/svg">
<path d="M5.625 9.62547H4.5C3.95 9.62547 3.5 10.0755 3.5 10.6255V10.7505H3C2.795 10.7505 2.625 10.9205 2.625 11.1255C2.625 11.3305 2.795 11.5005 3 11.5005H9C9.205 11.5005 9.375 11.3305 9.375 11.1255C9.375 10.9205 9.205 10.7505 9 10.7505H8.5V10.6255C8.5 10.0755 8.05 9.62547 7.5 9.62547H6.375V8.48047C6.25 8.49547 6.125 8.50047 6 8.50047C5.875 8.50047 5.75 8.49547 5.625 8.48047V9.62547Z" fill="#575757"/>
<path d="M9.23989 6.32C9.56989 6.195 9.85989 5.99 10.0899 5.76C10.5549 5.245 10.8599 4.63 10.8599 3.91C10.8599 3.19 10.2949 2.625 9.57489 2.625H9.29489C8.96989 1.96 8.28989 1.5 7.49989 1.5H4.49989C3.70989 1.5 3.02989 1.96 2.70489 2.625H2.42489C1.70489 2.625 1.13989 3.19 1.13989 3.91C1.13989 4.63 1.44489 5.245 1.90989 5.76C2.13989 5.99 2.42989 6.195 2.75989 6.32C3.27989 7.6 4.52989 8.5 5.99989 8.5C7.46989 8.5 8.71989 7.6 9.23989 6.32ZM7.41989 4.725L7.10989 5.105C7.05989 5.16 7.02489 5.27 7.02989 5.345L7.05989 5.835C7.07989 6.135 6.86489 6.29 6.58489 6.18L6.12989 6C6.05989 5.975 5.93989 5.975 5.86989 6L5.41489 6.18C5.13489 6.29 4.91989 6.135 4.93989 5.835L4.96989 5.345C4.97489 5.27 4.93989 5.16 4.88989 5.105L4.57989 4.725C4.38489 4.495 4.46989 4.24 4.75989 4.165L5.23489 4.045C5.30989 4.025 5.39989 3.955 5.43989 3.89L5.70489 3.48C5.86989 3.225 6.12989 3.225 6.29489 3.48L6.55989 3.89C6.59989 3.955 6.68989 4.025 6.76489 4.045L7.23989 4.165C7.52989 4.24 7.61489 4.495 7.41989 4.725Z" fill="#575757"/>
</svg>
