<svg width="18" height="18" viewBox="0 0 18 18" fill="none" xmlns="http://www.w3.org/2000/svg">
<path d="M16.1477 8.15266L15.0077 7.01266C14.8127 6.81766 14.6552 6.43516 14.6552 6.16516V4.54516C14.6552 3.88516 14.1152 3.34516 13.4552 3.34516H11.8427C11.5727 3.34516 11.1902 3.18766 10.9952 2.99266L9.85516 1.85266C9.39016 1.38766 8.62516 1.38766 8.16016 1.85266L7.00516 2.99266C6.81766 3.18766 6.43516 3.34516 6.15766 3.34516H4.54516C3.88516 3.34516 3.34516 3.88516 3.34516 4.54516V6.15766C3.34516 6.42766 3.18766 6.81016 2.99266 7.00516L1.85266 8.14516C1.38766 8.61016 1.38766 9.37516 1.85266 9.84016L2.99266 10.9802C3.18766 11.1752 3.34516 11.5577 3.34516 11.8277V13.4402C3.34516 14.1002 3.88516 14.6402 4.54516 14.6402H6.15766C6.42766 14.6402 6.81016 14.7977 7.00516 14.9927L8.14516 16.1327C8.61016 16.5977 9.37516 16.5977 9.84016 16.1327L10.9802 14.9927C11.1752 14.7977 11.5577 14.6402 11.8277 14.6402H13.4402C14.1002 14.6402 14.6402 14.1002 14.6402 13.4402V11.8277C14.6402 11.5577 14.7977 11.1752 14.9927 10.9802L16.1327 9.84016C16.6202 9.38266 16.6202 8.61766 16.1477 8.15266ZM6.00016 6.75016C6.00016 6.33766 6.33766 6.00016 6.75016 6.00016C7.16266 6.00016 7.50016 6.33766 7.50016 6.75016C7.50016 7.16266 7.17016 7.50016 6.75016 7.50016C6.33766 7.50016 6.00016 7.16266 6.00016 6.75016ZM7.14766 11.6477C7.03516 11.7602 6.89266 11.8127 6.75016 11.8127C6.60766 11.8127 6.46516 11.7602 6.35266 11.6477C6.13516 11.4302 6.13516 11.0702 6.35266 10.8527L10.8527 6.35266C11.0702 6.13516 11.4302 6.13516 11.6477 6.35266C11.8652 6.57016 11.8652 6.93016 11.6477 7.14766L7.14766 11.6477ZM11.2502 12.0002C10.8302 12.0002 10.4927 11.6627 10.4927 11.2502C10.4927 10.8377 10.8302 10.5002 11.2427 10.5002C11.6552 10.5002 11.9927 10.8377 11.9927 11.2502C11.9927 11.6627 11.6627 12.0002 11.2502 12.0002Z" fill="#BF6919"/>
</svg>
