<svg width="16" height="16" viewBox="0 0 16 16" fill="none" xmlns="http://www.w3.org/2000/svg">
<path d="M10.4064 3.66664V10.44C10.4064 10.7066 10.3264 10.9666 10.1797 11.1866L8.35968 13.8933C8.07302 14.3266 7.35968 14.6333 6.75302 14.4066C6.09968 14.1866 5.66635 13.4533 5.80635 12.8L6.15302 10.62C6.17968 10.42 6.12635 10.24 6.01302 10.1C5.89969 9.9733 5.73302 9.8933 5.55302 9.8933H2.81302C2.28635 9.8933 1.83302 9.67997 1.56635 9.30664C1.31302 8.94664 1.26635 8.47997 1.43302 8.00664L3.07302 3.01331C3.27968 2.18664 4.17969 1.51331 5.07302 1.51331H7.67302C8.11969 1.51331 8.74635 1.66664 9.03302 1.95331L9.88635 2.61331C10.213 2.86664 10.4064 3.25331 10.4064 3.66664Z" fill="#AEAEAE"/>
<path d="M12.5266 11.7401H13.2132C14.2466 11.7401 14.6666 11.3401 14.6666 10.3534V3.65339C14.6666 2.66672 14.2466 2.26672 13.2132 2.26672H12.5266C11.4932 2.26672 11.0732 2.66672 11.0732 3.65339V10.3601C11.0732 11.3401 11.4932 11.7401 12.5266 11.7401Z" fill="#AEAEAE"/>
</svg>
