<svg width="20" height="20" viewBox="0 0 20 20" fill="none" xmlns="http://www.w3.org/2000/svg">
<path d="M12.5003 18.9584H7.50033C2.97533 18.9584 1.04199 17.025 1.04199 12.5V7.50002C1.04199 2.97502 2.97533 1.04169 7.50033 1.04169H12.5003C17.0253 1.04169 18.9587 2.97502 18.9587 7.50002V12.5C18.9587 17.025 17.0253 18.9584 12.5003 18.9584ZM7.50033 2.29169C3.65866 2.29169 2.29199 3.65835 2.29199 7.50002V12.5C2.29199 16.3417 3.65866 17.7084 7.50033 17.7084H12.5003C16.342 17.7084 17.7087 16.3417 17.7087 12.5V7.50002C17.7087 3.65835 16.342 2.29169 12.5003 2.29169H7.50033Z" fill="#575757"/>
<path d="M13.125 8.125H6.875C6.53333 8.125 6.25 7.84167 6.25 7.5C6.25 7.15833 6.53333 6.875 6.875 6.875H13.125C13.4667 6.875 13.75 7.15833 13.75 7.5C13.75 7.84167 13.4667 8.125 13.125 8.125Z" fill="#575757"/>
<path d="M13.125 13.125H6.875C6.53333 13.125 6.25 12.8417 6.25 12.5C6.25 12.1583 6.53333 11.875 6.875 11.875H13.125C13.4667 11.875 13.75 12.1583 13.75 12.5C13.75 12.8417 13.4667 13.125 13.125 13.125Z" fill="#575757"/>
</svg>
