<svg width="12" height="13" viewBox="0 0 12 13" fill="none" xmlns="http://www.w3.org/2000/svg">
<path d="M7.90009 1.60524C7.69509 1.40024 7.34009 1.54024 7.34009 1.82524V3.57024C7.34009 4.30024 7.96009 4.90524 8.71509 4.90524C9.19009 4.91024 9.85009 4.91024 10.4151 4.91024C10.7001 4.91024 10.8501 4.57524 10.6501 4.37524C9.93009 3.65024 8.64009 2.34524 7.90009 1.60524Z" fill="#575757"/>
<path d="M10.25 5.595H8.805C7.62 5.595 6.655 4.63 6.655 3.445V2C6.655 1.725 6.43 1.5 6.155 1.5H4.035C2.495 1.5 1.25 2.5 1.25 4.285V8.715C1.25 10.5 2.495 11.5 4.035 11.5H7.965C9.505 11.5 10.75 10.5 10.75 8.715V6.095C10.75 5.82 10.525 5.595 10.25 5.595ZM5.75 9.375H3.75C3.545 9.375 3.375 9.205 3.375 9C3.375 8.795 3.545 8.625 3.75 8.625H5.75C5.955 8.625 6.125 8.795 6.125 9C6.125 9.205 5.955 9.375 5.75 9.375ZM6.75 7.375H3.75C3.545 7.375 3.375 7.205 3.375 7C3.375 6.795 3.545 6.625 3.75 6.625H6.75C6.955 6.625 7.125 6.795 7.125 7C7.125 7.205 6.955 7.375 6.75 7.375Z" fill="#575757"/>
</svg>
