<svg width="24" height="24" viewBox="0 0 24 24" fill="none" xmlns="http://www.w3.org/2000/svg">
<path d="M7.88733 12.6635L7.87587 12.6495L7.86341 12.6363L4.12341 8.6763L4.11851 8.67111L4.11346 8.66606C3.85011 8.40271 3.60484 8.02995 3.42603 7.6251C3.24618 7.2179 3.1499 6.8154 3.1499 6.49961V4.19961C3.1499 2.85924 4.15228 1.84961 5.3999 1.84961H18.5999C19.8438 1.84961 20.8499 2.85575 20.8499 4.09961V6.29961C20.8499 6.73137 20.7183 7.21883 20.5069 7.67808C20.2987 8.1306 20.0299 8.51921 19.7866 8.76576L15.4737 12.5806C15.1871 12.8218 14.9615 13.1743 14.8081 13.5307C14.652 13.8934 14.5499 14.3084 14.5499 14.6996V18.9996C14.5499 19.3463 14.4386 19.7451 14.2425 20.1083C14.0452 20.4734 13.7861 20.7588 13.5327 20.9109L13.5257 20.915L13.5189 20.9194L12.1425 21.8071C11.7741 22.0355 11.3572 22.1496 10.9399 22.1496C10.5462 22.1496 10.159 22.0519 9.79124 21.8517C9.06811 21.4482 8.6399 20.7243 8.6399 19.9096V14.6096C8.6399 14.2674 8.53169 13.886 8.39917 13.5609C8.26468 13.2309 8.08175 12.9019 7.88733 12.6635ZM11.872 21.3854L11.872 21.3855L11.8795 21.3807L13.2654 20.4933C13.5153 20.3392 13.7059 20.0714 13.8282 19.8371C13.9544 19.5952 14.0599 19.2888 14.0599 18.9996V14.6996C14.0599 13.7617 14.5261 12.7278 15.1515 12.2025L15.1516 12.2026L15.1614 12.1939L19.4414 8.40394L19.4527 8.39389L19.4635 8.38316C19.6893 8.15733 19.9071 7.81311 20.0675 7.4604C20.2274 7.10889 20.3599 6.68456 20.3599 6.28961V4.09961C20.3599 3.13347 19.576 2.34961 18.6099 2.34961H5.3999C4.38915 2.34961 3.6499 3.19939 3.6499 4.19961V6.49961C3.6499 6.7875 3.75694 7.13548 3.89101 7.43509C4.02814 7.74152 4.22695 8.07203 4.4715 8.3183L8.26327 12.3091C8.7206 12.881 9.1499 13.8139 9.1499 14.5996V19.8996C9.1499 20.8159 9.78873 21.2697 10.0532 21.41C10.6165 21.717 11.3173 21.7268 11.872 21.3854Z" fill="#292D32" stroke="#1993AB"/>
<path d="M5.78324 9.86635L5.7841 9.86497L10.7132 1.96635C10.7133 1.96618 10.7135 1.96601 10.7136 1.96584C10.79 1.84486 10.9429 1.81388 11.0538 1.88358C11.1752 1.95989 11.2064 2.11313 11.1366 2.22418L11.1357 2.22555L6.20574 10.1256L6.20572 10.1255L6.20282 10.1303C6.15318 10.2118 6.07471 10.2503 5.99992 10.2503C5.96433 10.2503 5.92004 10.2421 5.85401 10.2089C5.74469 10.131 5.71442 9.97584 5.78324 9.86635Z" fill="#292D32" stroke="#1993AB"/>
</svg>
