<svg width="17" height="16" viewBox="0 0 17 16" fill="none" xmlns="http://www.w3.org/2000/svg">
<g clip-path="url(#clip0_1292_4660)">
<path fill-rule="evenodd" clip-rule="evenodd" d="M16.18 8.18226C16.18 7.61499 16.1291 7.06953 16.0345 6.5459H8.5V9.64044H12.8055C12.62 10.6404 12.0564 11.4877 11.2091 12.055V14.0623H13.7945C15.3073 12.6695 16.18 10.6186 16.18 8.18226Z" fill="#4285F4"/>
<path fill-rule="evenodd" clip-rule="evenodd" d="M8.50017 15.9995C10.6602 15.9995 12.4711 15.2832 13.7947 14.0613L11.2093 12.0541C10.4929 12.5341 9.57653 12.8177 8.50017 12.8177C6.41653 12.8177 4.65289 11.4104 4.0238 9.51953H1.35107V11.5923C2.66744 14.2068 5.37289 15.9995 8.50017 15.9995Z" fill="#34A853"/>
<path fill-rule="evenodd" clip-rule="evenodd" d="M4.02364 9.51995C3.86364 9.03995 3.77273 8.52723 3.77273 7.99995C3.77273 7.47268 3.86364 6.95995 4.02364 6.47995V4.40723H1.35091C0.809091 5.48723 0.5 6.70904 0.5 7.99995C0.5 9.29086 0.809091 10.5127 1.35091 11.5927L4.02364 9.51995Z" fill="#FBBC05"/>
<path fill-rule="evenodd" clip-rule="evenodd" d="M8.50017 3.18182C9.67471 3.18182 10.7293 3.58545 11.5583 4.37818L13.8529 2.08364C12.4674 0.792727 10.6565 0 8.50017 0C5.37289 0 2.66744 1.79273 1.35107 4.40727L4.0238 6.48C4.65289 4.58909 6.41653 3.18182 8.50017 3.18182Z" fill="#EA4335"/>
</g>
<defs>
<clipPath id="clip0_1292_4660">
<rect width="16" height="16" fill="white" transform="translate(0.5)"/>
</clipPath>
</defs>
</svg>
