<svg width="32" height="33" viewBox="0 0 32 33" fill="none" xmlns="http://www.w3.org/2000/svg">
<path d="M29.2369 22.0427C28.3453 24.865 26.6369 27.3595 24.3276 29.2109C22.0184 31.0623 19.2121 32.1875 16.2634 32.444C13.3148 32.7006 10.3563 32.0771 7.76196 30.6524C5.16765 29.2277 3.05405 27.0657 1.68838 24.4398C0.322707 21.8139 -0.233702 18.8421 0.0895155 15.9C0.412733 12.9579 1.60105 10.1777 3.50423 7.91096C5.4074 5.64419 7.93997 3.99264 10.7817 3.16512C13.6235 2.3376 16.6468 2.37126 19.4694 3.26186C21.3441 3.85338 23.0839 4.80844 24.5894 6.07249C26.095 7.33653 27.3367 8.8848 28.2438 10.6288C29.1508 12.3729 29.7054 14.2785 29.8758 16.237C30.0462 18.1954 29.8291 20.1682 29.2369 22.0427Z" fill="#1993AB"/>
<g opacity="0.1">
<path d="M19.4799 3.26082C17.6054 2.6679 15.6325 2.45025 13.6738 2.62032C11.7152 2.79039 9.80926 3.34484 8.06503 4.25198C6.32081 5.15912 4.77249 6.40116 3.50858 7.90707C2.24468 9.41298 1.28999 11.1532 0.699097 13.0284C0.699097 13.0284 10.586 16.6478 14.2651 13.3702C17.9442 10.0927 19.4799 3.26082 19.4799 3.26082Z" fill="white"/>
</g>
<path d="M25.6611 20.664C24.9847 22.8156 23.6851 24.7181 21.9268 26.1306C20.1685 27.5432 18.0305 28.4021 15.7837 28.5988C13.5369 28.7955 11.2822 28.321 9.30525 27.2355C7.32827 26.1499 5.71787 24.5021 4.678 22.5007C3.63813 20.4993 3.21554 18.2344 3.46376 15.9926C3.71198 13.7509 4.61985 11.6333 6.07237 9.90787C7.5249 8.18245 9.45677 6.92687 11.6234 6.30012C13.7899 5.67337 16.0938 5.70363 18.2431 6.38708C21.1171 7.30092 23.5116 9.31674 24.902 11.9928C26.2925 14.6689 26.5654 17.787 25.6611 20.664Z" fill="#1993AB"/>
<g opacity="0.2">
<path d="M25.662 20.662C24.9857 22.8136 23.6861 24.7162 21.9278 26.1287C20.1694 27.5412 18.0315 28.4002 15.7847 28.5969C13.5379 28.7935 11.2832 28.3191 9.30623 27.2335C7.32925 26.1479 5.71884 24.5001 4.67897 22.4988C3.6391 20.4974 3.21652 18.2324 3.46474 15.9907C3.71295 13.749 4.62082 11.6313 6.07335 9.90592C7.52588 8.1805 9.45775 6.92492 11.6243 6.29817C13.7909 5.67141 16.0947 5.70167 18.2441 6.38512C21.1181 7.29897 23.5126 9.31478 24.903 11.9909C26.2934 14.667 26.5664 17.7851 25.662 20.662Z" fill="black"/>
</g>
<path d="M25.8236 21.2107C25.1501 23.3241 23.8655 25.1906 22.1318 26.5743C20.3982 27.958 18.2934 28.7969 16.0832 28.985C13.8731 29.1731 11.6568 28.702 9.71421 27.6312C7.77165 26.5604 6.18999 24.9379 5.16904 22.9687C4.14808 20.9995 3.73362 18.7719 3.97798 16.5673C4.22235 14.3627 5.1146 12.2799 6.54202 10.5821C7.96944 8.88425 9.86801 7.64755 11.9979 7.02815C14.1278 6.40876 16.3935 6.43446 18.5088 7.10203C19.9167 7.54633 21.223 8.26406 22.353 9.2141C23.483 10.1641 24.4144 11.3278 25.094 12.6384C25.7735 13.9491 26.1877 15.3809 26.3129 16.8519C26.4381 18.3229 26.2718 19.8041 25.8236 21.2107Z" fill="#1993AB"/>
<g opacity="0.2">
<path d="M25.8236 21.2127C25.1501 23.3261 23.8655 25.1925 22.1318 26.5762C20.3982 27.9599 18.2934 28.7988 16.0832 28.9869C13.8731 29.1751 11.6568 28.704 9.71421 27.6332C7.77165 26.5624 6.18999 24.9399 5.16904 22.9707C4.14808 21.0015 3.73362 18.7739 3.97798 16.5692C4.22235 14.3646 5.1146 12.2818 6.54202 10.584C7.96944 8.88621 9.86801 7.6495 11.9979 7.0301C14.1278 6.41071 16.3935 6.43642 18.5088 7.10398C19.9167 7.54828 21.223 8.26602 22.353 9.21605C23.483 10.1661 24.4144 11.3298 25.094 12.6404C25.7735 13.951 26.1877 15.3828 26.3129 16.8538C26.4381 18.3248 26.2718 19.806 25.8236 21.2127Z" fill="white"/>
</g>
<path d="M15.2957 16.239L13.9872 13.7104C14.4826 13.527 14.9999 13.4096 15.5259 13.3612C15.8076 13.3606 16.0888 13.385 16.3662 13.4341L16.3585 13.3344L16.2741 12.214L16.2549 11.9569L15.5528 11.7151L15.3878 11.9262C14.659 11.9242 13.9374 12.0691 13.2659 12.3521L12.5368 10.9554L11.9076 10.8173L12.0879 11.1664L11.4893 11.4811L12.2299 12.9046C10.3651 14.1095 10.0082 15.7249 10.6759 17.0141C11.5891 18.7715 13.3273 18.4453 14.9081 18.054L16.2166 20.5826C15.2638 20.9843 14.2161 21.1054 13.1968 20.9317L13.2889 22.5049C14.5293 22.6851 15.7952 22.4886 16.9226 21.9409L17.4751 22.9999L16.9763 23.2685L17.6516 23.3606L18.6838 22.8196L17.9509 21.4037C19.8311 20.1758 20.1994 18.572 19.5318 17.2827C18.6454 15.4831 16.8881 15.8361 15.2957 16.239ZM14.1215 16.5153C13.2774 16.6765 12.5906 16.6803 12.2644 16.0702C11.9383 15.4601 12.1224 14.8615 12.9474 14.2591L14.1215 16.5153ZM17.2487 20.0032L16.0861 17.7662C16.9533 17.5897 17.6631 17.5935 17.9663 18.1882C18.2694 18.783 18.1121 19.3701 17.2641 19.9878L17.2487 20.0032Z" fill="#1993AB"/>
<g opacity="0.3">
<path d="M15.2959 16.2371L13.9875 13.7085C14.4828 13.5251 15.0002 13.4077 15.5261 13.3593C15.8079 13.3587 16.0891 13.3831 16.3665 13.4322L16.3588 13.3325L16.2744 12.2121L16.2552 11.955L15.553 11.7132L15.388 11.9243C14.6593 11.9223 13.9377 12.0672 13.2661 12.3502L12.5371 10.9535L11.9078 10.8154L12.0881 11.1645L11.4896 11.4792L12.2301 12.9027C10.3653 14.1076 10.0085 15.723 10.6761 17.0122C11.5893 18.7696 13.3275 18.4434 14.9084 18.0521L16.2168 20.5807C15.2641 20.9824 14.2163 21.1035 13.1971 20.9299L13.2891 22.503C14.5295 22.6832 15.7954 22.4867 16.9228 21.939L17.4754 22.998L16.9766 23.2666L17.6519 23.3587L18.684 22.8177L17.9512 21.4018C19.8313 20.1739 20.1997 18.5701 19.532 17.2808C18.6457 15.4812 16.8883 15.8342 15.2959 16.2371ZM14.1218 16.5134C13.2776 16.6746 12.5908 16.6784 12.2646 16.0683C11.9385 15.4582 12.1227 14.8596 12.9476 14.2572L14.1218 16.5134ZM17.249 20.0013L16.0864 17.7643C16.9535 17.5878 17.6634 17.5916 17.9665 18.1864C18.2696 18.7811 18.1123 19.3682 17.2643 19.9859L17.249 20.0013Z" fill="black"/>
</g>
<path d="M17.3716 21.2384L18.1045 22.6543L17.0685 23.1915L16.3433 21.7909C15.2163 22.34 13.95 22.5365 12.7096 22.355L12.6175 20.7895C13.6385 20.957 14.6861 20.8347 15.6411 20.4365L14.3288 17.9117C12.7479 18.2954 11.0098 18.6215 10.1004 16.868C9.43272 15.5787 9.7819 13.971 11.6544 12.7585L10.91 11.3311L11.946 10.7939L12.675 12.1906C13.6001 11.7594 14.6186 11.5668 15.6372 11.6304L15.7754 13.1652C14.9557 13.1221 14.1361 13.2516 13.3695 13.5451L14.678 16.0737C16.2588 15.69 18.0162 15.337 18.9256 17.0905C19.6201 18.4067 19.2479 20.0067 17.3716 21.2384ZM13.5269 16.373L12.3604 14.1245C11.5354 14.7269 11.3935 15.3831 11.6812 15.9394C11.969 16.4958 12.6865 16.538 13.5269 16.373ZM17.3908 18.0728C17.0685 17.4512 16.3624 17.4512 15.4953 17.6277L16.6579 19.8647C17.5212 19.2316 17.6709 18.6139 17.3908 18.0728Z" fill="#1993AB"/>
<path d="M11.5093 28.5689H11.6015L11.862 28.634L12.2907 28.7425C12.4836 28.7949 12.6792 28.8366 12.8767 28.8673L13.6202 28.9759C13.7618 28.9999 13.9052 29.0126 14.0489 29.0139H14.5155C14.6817 29.025 14.8485 29.025 15.0148 29.0139H15.5574C15.7419 29.0139 15.9264 29.0139 16.1 28.9759L16.6861 28.8945C17.5555 28.7569 18.4072 28.524 19.2256 28.1999L19.8877 27.896C19.9962 27.8472 20.1102 27.7983 20.2187 27.7386L20.5443 27.5541C20.7613 27.4239 20.9892 27.3045 21.2063 27.158L21.8466 26.6968L22.0094 26.5828L22.1668 26.4526L22.4706 26.1813L22.78 25.9154C22.8885 25.8231 22.9753 25.7146 23.073 25.6169C23.2629 25.4107 23.4637 25.2154 23.6482 24.9983L24.1908 24.3146C24.8881 23.3353 25.4366 22.2582 25.8187 21.1184C26.1703 19.9717 26.3531 18.7798 26.3614 17.5804C26.3614 17.2928 26.3342 17.0052 26.318 16.7176C26.3017 16.43 26.242 16.1749 26.204 15.8819C26.1903 15.7433 26.1685 15.6056 26.1389 15.4695L26.0412 15.0734L25.9435 14.6773L25.8947 14.4819L25.8296 14.292L25.5637 13.5431C25.4715 13.3044 25.3521 13.0765 25.249 12.8431C25.2001 12.7292 25.1459 12.6152 25.0916 12.5013C25.0373 12.3873 24.9722 12.2896 24.9071 12.1811C24.7877 11.9695 24.6629 11.7633 24.5435 11.5571C24.0615 10.8206 23.4991 10.1399 22.8668 9.5276L22.4327 9.12062C22.2916 8.99038 22.1396 8.88728 21.9985 8.77332L21.5753 8.44774C21.4429 8.34979 21.3052 8.25921 21.1629 8.17642L20.7667 7.92681C20.6486 7.84644 20.5254 7.77392 20.3977 7.70974L19.7249 7.37331C19.5501 7.28213 19.3687 7.20413 19.1822 7.13997L18.7698 6.97718L18.5202 6.8795L18.4334 6.84152L18.5256 6.86865L18.7807 6.95547L19.1931 7.10741C19.3798 7.16877 19.5612 7.24498 19.7357 7.33532L20.4195 7.66633C20.5493 7.72766 20.6744 7.79839 20.7939 7.87796L21.19 8.12216C21.3359 8.20483 21.4772 8.29541 21.6133 8.39348L22.0365 8.71906C22.1776 8.83301 22.335 8.93611 22.4761 9.06635L22.9156 9.47333C23.5582 10.0855 24.1298 10.7681 24.6195 11.5082L24.9885 12.1323L25.173 12.4579L25.3358 12.7997C25.4389 13.0331 25.5583 13.2664 25.6559 13.5106L25.9218 14.2594L25.987 14.4494C25.987 14.5145 26.0195 14.5796 26.0358 14.6501L26.1389 15.0463L26.2366 15.4478C26.2746 15.5835 26.28 15.7246 26.3071 15.8656C26.3451 16.1424 26.3939 16.4083 26.4211 16.7122C26.4482 17.016 26.4482 17.2874 26.4645 17.5804C26.4638 18.7929 26.2808 19.9983 25.9218 21.1564C25.5416 22.3054 24.993 23.3917 24.2939 24.3797L23.7513 25.0688C23.5668 25.2859 23.3606 25.4867 23.1707 25.6929C23.073 25.7906 22.9862 25.8991 22.8776 25.9913L22.5629 26.2627L22.2536 26.534L22.0962 26.6642L21.9334 26.7836C21.7109 26.9355 21.4993 27.0929 21.2823 27.2448C21.0652 27.3968 20.8319 27.5053 20.6148 27.6355L20.2892 27.8255C20.1753 27.8852 20.0613 27.934 19.9474 27.9828L19.2853 28.2867C18.4577 28.609 17.5969 28.8383 16.7186 28.9704L16.1326 29.0518C15.9372 29.0518 15.7473 29.0518 15.59 29.0844H15.0473C14.8793 29.0954 14.7107 29.0954 14.5427 29.0844L14.0814 29.0573C13.936 29.0517 13.791 29.0372 13.6473 29.0139L12.9039 28.8945C12.706 28.8611 12.5103 28.8158 12.3178 28.7588L11.8891 28.6394L11.6287 28.5689C11.5364 28.5797 11.5093 28.5743 11.5093 28.5689Z" fill="#263238"/>
<path d="M0.699378 20.3804C0.682733 20.3368 0.671791 20.2912 0.666821 20.2448C0.666821 20.1471 0.628833 20.0223 0.596275 19.8649C0.563716 19.7075 0.536588 19.4959 0.514882 19.2571C0.493176 19.0184 0.449762 18.7525 0.444336 18.4486C0.444336 18.3021 0.444336 18.1447 0.444336 17.9765C0.444336 17.8083 0.444336 17.6455 0.444336 17.4664C0.444336 17.1137 0.47146 16.7339 0.504019 16.3377C0.587183 15.4781 0.741463 14.6269 0.965267 13.7928C1.19853 12.9599 1.49793 12.1469 1.86062 11.3617C2.03969 11.009 2.20249 10.6671 2.40326 10.3633C2.49009 10.2113 2.57148 10.0594 2.65831 9.91829C2.74513 9.77721 2.83738 9.65239 2.91878 9.52216C3.07615 9.26712 3.24978 9.05549 3.38544 8.86014C3.5211 8.66479 3.65678 8.50742 3.77073 8.38262L4.02034 8.08958L4.11801 7.99191L4.04205 8.10586C3.97693 8.18183 3.90096 8.28494 3.80329 8.40975C3.70561 8.53456 3.56995 8.70277 3.43971 8.89812C3.30948 9.09347 3.13583 9.31053 2.98389 9.56557L2.73428 9.9617C2.64746 10.1028 2.5715 10.2547 2.48467 10.4067C2.3056 10.7105 2.1428 11.0524 1.96916 11.4051C1.25 12.9674 0.793486 14.6377 0.617985 16.3486C0.590853 16.7447 0.552854 17.1191 0.552854 17.4664C0.552854 17.6455 0.552854 17.8137 0.552854 17.9765V18.4486C0.552854 18.7471 0.585427 18.9913 0.601707 19.2517C0.617986 19.5122 0.645115 19.6967 0.666821 19.8595C0.688527 20.0223 0.704804 20.1417 0.715657 20.2448C0.716339 20.2905 0.710864 20.3361 0.699378 20.3804Z" fill="white"/>
<path d="M11.4901 17.4492C11.3328 17.4398 11.1801 17.3924 11.045 17.3111C10.7041 17.133 10.4305 16.8486 10.2657 16.501C10.1009 16.1534 10.0539 15.7616 10.1318 15.3849C10.1533 15.2285 10.2125 15.0796 10.3045 14.9513C10.3045 14.9513 10.2469 15.124 10.2085 15.4002C10.1578 15.7598 10.2125 16.1263 10.3659 16.4554C10.5274 16.788 10.782 17.0666 11.0987 17.2574C11.3366 17.4032 11.5016 17.4377 11.4901 17.4492Z" fill="white"/>
<path d="M11.7498 12.4317C11.5452 12.1898 11.3971 11.9053 11.3162 11.599C11.3392 11.576 11.4697 11.7525 11.5848 11.9904C11.6999 12.2283 11.7767 12.4125 11.7498 12.4317Z" fill="white"/>
<path d="M19.3119 6.4123C19.1954 6.37824 19.0812 6.33655 18.9701 6.28749C18.8615 6.24408 18.7259 6.18982 18.5685 6.14098C18.4112 6.09214 18.2321 6.01617 18.0259 5.96191C17.8197 5.90764 17.6026 5.8371 17.3639 5.78283C17.1251 5.72857 16.8646 5.67431 16.5933 5.62005C16.0007 5.52472 15.4025 5.46852 14.8026 5.45182C14.2022 5.44559 13.6021 5.48004 13.0064 5.55492C12.7297 5.59834 12.4638 5.63632 12.2305 5.69058C11.9971 5.74485 11.7638 5.79369 11.563 5.84796C11.3622 5.90222 11.1777 5.95648 11.0204 6.00532C10.8821 6.04229 10.7462 6.08759 10.6134 6.14098C10.5 6.18421 10.384 6.22045 10.2661 6.24951C10.3725 6.19062 10.4831 6.13983 10.5971 6.09757C10.7278 6.03884 10.8619 5.9881 10.9987 5.94563C11.1615 5.89136 11.3351 5.82082 11.5413 5.77199C11.7475 5.72315 11.97 5.64717 12.2142 5.59834C12.4584 5.5495 12.7134 5.50066 12.9902 5.45725C13.5906 5.37391 14.1964 5.33401 14.8026 5.33787C15.4087 5.35401 16.0127 5.41568 16.6096 5.52237C16.8863 5.57663 17.1522 5.62547 17.3856 5.69602C17.6189 5.76656 17.8468 5.82082 18.0476 5.88594C18.2484 5.95105 18.4274 6.0216 18.5902 6.08129C18.753 6.14098 18.8778 6.20067 18.9863 6.24951C19.099 6.29517 19.2078 6.3496 19.3119 6.4123Z" fill="white"/>
<path d="M12.426 31.6076C12.334 31.6172 12.2413 31.6172 12.1493 31.6076C11.9757 31.6076 11.7152 31.5588 11.4059 31.5045C10.5886 31.3583 9.79106 31.118 9.02912 30.7882C8.26139 30.4565 7.53331 30.0397 6.85855 29.5456C6.60351 29.3502 6.40816 29.1874 6.27792 29.0681C6.20363 29.011 6.13625 28.9454 6.07715 28.8727C6.15814 28.9196 6.23445 28.9741 6.30505 29.0355C6.44071 29.144 6.64692 29.296 6.90739 29.4805C7.58889 29.9535 8.31604 30.357 9.07796 30.6851C9.83346 31.0082 10.6186 31.2572 11.4222 31.4286C11.7315 31.4937 11.9648 31.5371 12.1602 31.5642C12.2499 31.571 12.3388 31.5855 12.426 31.6076Z" fill="white"/>
<path d="M17.5483 14.1895L19.0272 11.4989C18.1113 9.96576 17.7849 8.13498 18.1122 6.36642C18.4395 4.59786 19.3968 3.01942 20.796 1.94136C22.1952 0.863293 23.935 0.363571 25.6735 0.540414C27.412 0.717258 29.0235 1.55788 30.1911 2.89704C31.3588 4.23621 31.9983 5.97707 31.9838 7.77745C31.9693 9.57784 31.3019 11.3075 30.1129 12.6266C28.9238 13.9456 27.2991 14.7586 25.5579 14.9057C23.8168 15.0528 22.0853 14.5234 20.7037 13.4216L17.5483 14.1895Z" fill="#F5F5F5"/>
<path d="M17.5483 14.1892L20.7065 13.4038L20.6966 13.4329L20.6119 13.3195L20.722 13.4067C21.1656 13.7537 21.6467 14.0465 22.1557 14.2793C22.762 14.5559 23.4035 14.742 24.0608 14.832C24.4245 14.8832 24.7918 14.9012 25.1586 14.8858C25.3463 14.8742 25.5396 14.8684 25.733 14.8509L26.3186 14.7578C28.0603 14.4009 29.6051 13.3746 30.6395 11.8869C31.2142 11.0649 31.6116 10.1257 31.8051 9.13239C32.0035 8.08208 31.9751 6.99962 31.7218 5.96191C31.4603 4.878 30.9519 3.87392 30.2387 3.03285L29.9565 2.7129C29.8648 2.60527 29.7533 2.51656 29.6531 2.42203C29.5529 2.32749 29.4527 2.22278 29.3398 2.13988L29.0082 1.88537C28.8996 1.79818 28.7844 1.71989 28.6639 1.65122L28.3139 1.43161L27.947 1.24691C27.8269 1.18222 27.703 1.12539 27.5759 1.07675C26.5902 0.674079 25.529 0.505562 24.4714 0.583728C23.4727 0.65339 22.5011 0.948301 21.6251 1.44761C20.0524 2.3503 18.8744 3.83908 18.3329 5.60851C18.117 6.3637 18.0133 7.14825 18.0253 7.93547C18.0425 8.61829 18.1541 9.29509 18.3569 9.94538C18.528 10.4861 18.7596 11.0044 19.047 11.4899V11.4986V11.5088C18.086 13.2293 17.6161 14.0801 17.5483 14.1892L19.0159 11.487V11.5059C18.7227 11.0193 18.4859 10.499 18.3104 9.95556C18.1032 9.30203 17.9882 8.62123 17.9689 7.93401C17.9541 7.14159 18.0569 6.35149 18.2737 5.59105C18.8175 3.80388 20.0067 2.30029 21.5955 1.39089C22.4799 0.886177 23.4613 0.588261 24.47 0.518283C25.5366 0.439954 26.6067 0.609433 27.6013 1.01422C27.729 1.06423 27.8538 1.12152 27.9753 1.18583L28.3464 1.37199L28.7006 1.5945C28.821 1.66364 28.9365 1.74139 29.0463 1.8272L29.3808 2.08607C29.4916 2.17708 29.5976 2.27417 29.6983 2.37694C29.7999 2.47584 29.9114 2.56601 30.0059 2.66781L30.2881 2.99068C31.008 3.84138 31.5211 4.85632 31.7853 5.95173C32.0406 6.99908 32.0685 8.09155 31.8672 9.1513C31.6713 10.1545 31.269 11.1027 30.6875 11.932C29.6414 13.4316 28.081 14.4647 26.3228 14.8218L25.7316 14.9134C25.5368 14.9309 25.3421 14.9353 25.153 14.9469C24.7833 14.9609 24.4131 14.9414 24.0466 14.8887C23.3861 14.7985 22.7413 14.6119 22.1317 14.3346C21.6202 14.0959 21.1376 13.7962 20.6938 13.4416L20.7206 13.4155L20.7375 13.4402H20.7107L17.5483 14.1892Z" fill="#263238"/>
<path d="M22.6528 7.83241L23.3598 7.10379L24.723 8.35307L27.3999 5.69888L28.0561 6.42751L24.6228 9.75797L22.6528 7.83241Z" fill="#1993AB"/>
</svg>
