<svg width="32" height="29" viewBox="0 0 32 29" fill="none" xmlns="http://www.w3.org/2000/svg">
<path d="M24.6084 3.77588L15.9259 0.577408L7.32643 3.73374C6.22836 4.2649 5.26562 4.58411 5.26562 5.63239V10.8597C5.24772 14.5182 6.22725 18.1123 8.09892 21.2557C9.70262 23.9256 12.1848 26.6746 16.0153 28.4226C19.5304 27.2517 22.1543 24.1299 23.758 21.4587C25.6298 18.3158 26.6094 14.7221 26.5913 11.064V6.36274C26.5849 4.86629 25.8124 4.13594 24.6084 3.77588Z" fill="#1993AB"/>
<g opacity="0.8">
<path d="M24.6084 3.77588L15.9259 0.577408L7.32643 3.73374C6.22836 4.2649 5.26562 4.58411 5.26562 5.63239V10.8597C5.24772 14.5182 6.22725 18.1123 8.09892 21.2557C9.70262 23.9256 12.1848 26.6746 16.0153 28.4226C19.5304 27.2517 22.1543 24.1299 23.758 21.4587C25.6298 18.3158 26.6094 14.7221 26.5913 11.064V6.36274C26.5849 4.86629 25.8124 4.13594 24.6084 3.77588Z" fill="white"/>
</g>
<path d="M21.2274 16.9996H19.6314V8.31718C19.6314 7.33395 19.2408 6.39098 18.5455 5.69573C17.8503 5.00048 16.9073 4.60989 15.9241 4.60989C14.9409 4.60989 13.9979 5.00048 13.3026 5.69573C12.6074 6.39098 12.2168 7.33395 12.2168 8.31718V16.9996H10.6208V8.31718C10.6098 7.61381 10.739 6.9153 11.0006 6.26231C11.2622 5.60931 11.6511 5.01489 12.1446 4.51363C12.6382 4.01237 13.2265 3.61429 13.8754 3.34257C14.5242 3.07086 15.2206 2.93092 15.9241 2.93092C16.6275 2.93092 17.324 3.07086 17.9728 3.34257C18.6217 3.61429 19.21 4.01237 19.7035 4.51363C20.1971 5.01489 20.586 5.60931 20.8476 6.26231C21.1092 6.9153 21.2383 7.61381 21.2274 8.31718V16.9996Z" fill="#1993AB"/>
<g opacity="0.4">
<path d="M21.2274 16.9977H19.6314V8.31523C19.6314 7.33199 19.2408 6.38903 18.5455 5.69378C17.8503 4.99853 16.9073 4.60794 15.9241 4.60794C14.9409 4.60794 13.9979 4.99853 13.3026 5.69378C12.6074 6.38903 12.2168 7.33199 12.2168 8.31523V16.9977H10.6208V8.31523C10.6098 7.61186 10.739 6.91335 11.0006 6.26035C11.2622 5.60736 11.6511 5.01293 12.1446 4.51167C12.6382 4.01041 13.2265 3.61234 13.8754 3.34062C14.5242 3.0689 15.2206 2.92897 15.9241 2.92897C16.6275 2.92897 17.324 3.0689 17.9728 3.34062C18.6217 3.61234 19.21 4.01041 19.7035 4.51167C20.1971 5.01293 20.586 5.60736 20.8476 6.26035C21.1092 6.91335 21.2383 7.61186 21.2274 8.31523V16.9977Z" fill="black"/>
</g>
<path d="M22.3292 13.134H9.5187C9.10899 13.134 8.77686 13.4662 8.77686 13.8759V21.5624C8.77686 21.9721 9.10899 22.3043 9.5187 22.3043H22.3292C22.7389 22.3043 23.071 21.9721 23.071 21.5624V13.8759C23.071 13.4662 22.7389 13.134 22.3292 13.134Z" fill="#1993AB"/>
<g opacity="0.5">
<path d="M17.1184 16.5272C17.1185 16.3048 17.0566 16.0868 16.9396 15.8977C16.8226 15.7085 16.6552 15.5558 16.4561 15.4567C16.2571 15.3575 16.0343 15.3159 15.8129 15.3364C15.5915 15.3569 15.3802 15.4388 15.2027 15.5729C15.0253 15.707 14.8888 15.8879 14.8086 16.0953C14.7284 16.3027 14.7076 16.5284 14.7487 16.7469C14.7897 16.9655 14.8909 17.1683 15.0409 17.3325C15.1909 17.4966 15.3837 17.6157 15.5977 17.6763V19.4639H16.2501V17.6763C16.5005 17.6058 16.7208 17.4553 16.8776 17.2478C17.0344 17.0403 17.1189 16.7872 17.1184 16.5272Z" fill="black"/>
</g>
<path d="M9.5392 21.4357C9.506 21.4357 9.48047 19.9035 9.48047 18.0202C9.48047 16.1368 9.506 14.6046 9.5392 14.6046C9.5724 14.6046 9.59921 16.1368 9.59921 18.0202C9.59921 19.9035 9.5724 21.4357 9.5392 21.4357Z" fill="#FAFAFA"/>
<path d="M14.9886 18.0568C14.9886 18.0568 14.9324 18.0389 14.8481 17.9776C14.73 17.8894 14.6262 17.7834 14.5404 17.6635C14.3914 17.4668 14.2877 17.2396 14.2367 16.9982C14.1858 16.7567 14.1889 16.507 14.2457 16.2669C14.3026 16.0268 14.4118 15.8022 14.5656 15.6092C14.7195 15.4163 14.914 15.2597 15.1354 15.1507C15.2679 15.0824 15.41 15.0346 15.5568 15.009C15.6092 14.9946 15.664 14.9916 15.7177 15.0001C15.7177 15.023 15.4917 15.0447 15.1814 15.2248C14.9789 15.3368 14.802 15.4898 14.6622 15.6742C14.5223 15.8586 14.4225 16.0701 14.3693 16.2953C14.316 16.5205 14.3104 16.7544 14.3529 16.9819C14.3953 17.2094 14.4849 17.4255 14.6158 17.6163C14.7278 17.773 14.8525 17.9204 14.9886 18.0568Z" fill="#FAFAFA"/>
<path d="M26.6655 26.3936C26.6655 26.3936 26.7 26.3451 26.7689 26.2545L26.8264 26.1779C26.8468 26.1485 26.8647 26.114 26.8851 26.077C26.936 25.994 26.9788 25.9064 27.0128 25.8152C27.0332 25.7629 27.0575 25.7093 27.0779 25.6505C27.0983 25.5918 27.1124 25.5228 27.1303 25.4615C27.1511 25.3928 27.1656 25.3223 27.1737 25.2509C27.1889 25.1741 27.2 25.0965 27.2069 25.0185C27.237 24.6446 27.2199 24.2683 27.1558 23.8987C27.0281 23.0598 26.6706 22.0741 26.1267 21.0016C25.4956 19.7923 24.7563 18.6427 23.9177 17.5669C22.9081 16.2567 21.8073 15.0193 20.6235 13.8641C19.2712 12.5332 17.8265 11.2997 16.3002 10.1727C15.4919 9.58029 14.6403 9.00444 13.7465 8.46178C12.8329 7.90499 11.8844 7.40769 10.9068 6.973C9.89924 6.51268 8.83804 6.18025 7.74792 5.98345C7.19145 5.88453 6.62322 5.87033 6.0625 5.94131C5.78207 5.98341 5.50852 6.06286 5.24916 6.17753C4.98804 6.29369 4.75444 6.46375 4.56366 6.67653C4.37287 6.88932 4.22923 7.14003 4.14215 7.41223C4.05745 7.68291 4.00977 7.96381 4.00042 8.24728C3.99249 8.81246 4.07042 9.37558 4.23152 9.91737C4.55096 10.9783 5.00223 11.9949 5.57475 12.9435C6.11782 13.8659 6.72004 14.7522 7.37764 15.5967C8.01606 16.4267 8.68767 17.2068 9.36822 17.941C10.6617 19.3301 12.0518 20.6259 13.5281 21.8187C14.8103 22.8627 16.1641 23.8154 17.5795 24.6699C18.7437 25.3803 19.9698 25.9837 21.2428 26.4728C22.3702 26.8916 23.3904 27.1316 24.2382 27.1648C24.6128 27.1876 24.9888 27.1619 25.3567 27.0882C25.433 27.073 25.5084 27.0538 25.5827 27.0308C25.6528 27.0132 25.7215 26.9906 25.7883 26.9631L25.9696 26.889C26.0258 26.8622 26.0769 26.8316 26.1254 26.8061C26.2122 26.7599 26.2946 26.706 26.3718 26.6452C26.405 26.6196 26.4382 26.5992 26.465 26.5762L26.534 26.5098L26.6617 26.3911L26.5404 26.5188L26.4714 26.5877C26.4446 26.6107 26.4127 26.6324 26.3782 26.6592C26.3015 26.7209 26.2194 26.7755 26.133 26.8227C26.0845 26.8495 26.0335 26.8801 25.9773 26.9082L25.7947 26.9835C25.7282 27.0122 25.6595 27.0353 25.5891 27.0525C25.5145 27.0768 25.4386 27.0973 25.3618 27.1138C24.9924 27.1892 24.6148 27.2171 24.2382 27.1968C23.3866 27.1674 22.3626 26.9286 21.2313 26.5137C19.9543 26.0268 18.7243 25.4246 17.5566 24.7146C16.1366 23.8629 14.7793 22.9109 13.495 21.866C12.0149 20.6737 10.6214 19.3778 9.32481 17.9882C8.64171 17.2528 7.97137 16.4714 7.32912 15.6401C6.66954 14.7938 6.0652 13.9058 5.51985 12.9818C4.9446 12.0282 4.49078 11.0065 4.16896 9.94036C4.00665 9.39095 3.92872 8.82008 3.93785 8.24728C3.94694 7.95721 3.99592 7.66978 4.08341 7.39308C4.17208 7.11196 4.31931 6.85282 4.5154 6.63274C4.7115 6.41266 4.952 6.23662 5.22107 6.11624C5.48584 5.99829 5.76551 5.91709 6.05229 5.87492C6.61973 5.80203 7.19498 5.81623 7.75814 5.91705C8.85381 6.11451 9.92026 6.44912 10.9323 6.91298C11.9098 7.34968 12.8575 7.84999 13.7695 8.41071C14.6633 8.95464 15.5213 9.53177 16.3231 10.1255C17.8509 11.2563 19.2969 12.4937 20.6503 13.8283C21.8335 14.9862 22.9334 16.2261 23.942 17.5388C24.78 18.6188 25.518 19.7727 26.1471 20.9862C26.6885 22.0626 27.0409 23.0534 27.1686 23.8949C27.2314 24.2668 27.2465 24.6453 27.2132 25.021C27.2065 25.0995 27.1954 25.1775 27.1801 25.2547C27.1699 25.3264 27.1546 25.3972 27.1341 25.4667C27.1149 25.533 27.0971 25.5943 27.0805 25.6569C27.0639 25.7195 27.0332 25.7693 27.0128 25.8216C26.9766 25.9132 26.9313 26.0009 26.8774 26.0834C26.8557 26.1204 26.8379 26.1549 26.8174 26.1842L26.7574 26.2596C26.6974 26.3489 26.6655 26.3936 26.6655 26.3936Z" fill="#1993AB"/>
<path d="M30.7511 16.528C30.7511 16.528 30.7447 16.4693 30.7358 16.3556C30.7358 16.3267 30.7332 16.2948 30.7281 16.2599C30.7281 16.2241 30.7128 16.1871 30.7051 16.145C30.6884 16.0483 30.6628 15.9534 30.6285 15.8615C30.6094 15.8092 30.5915 15.753 30.5685 15.6955C30.5455 15.6381 30.511 15.5819 30.4804 15.5193C30.4483 15.4529 30.4107 15.3893 30.368 15.3291C30.3259 15.2678 30.2902 15.2014 30.2404 15.135C30.0142 14.8355 29.7507 14.566 29.4564 14.3331C28.8014 13.7943 27.8795 13.2938 26.761 12.8558C25.4849 12.3737 24.1678 12.0079 22.8258 11.7629C21.2009 11.458 19.5565 11.2682 17.9049 11.1947C16.0094 11.1035 14.1099 11.1462 12.2204 11.3224C11.2232 11.4169 10.2043 11.5548 9.17389 11.7476C8.12137 11.9398 7.08241 12.1999 6.06352 12.5264C5.00405 12.8534 3.98962 13.3115 3.04381 13.8901C2.56598 14.1875 2.13556 14.5551 1.76697 14.9805C1.58528 15.1982 1.43408 15.4396 1.31753 15.6981C1.20035 15.9591 1.13977 16.2419 1.13977 16.528C1.13977 16.8141 1.20035 17.097 1.31753 17.358C1.43455 17.6162 1.58571 17.8575 1.76697 18.0755C2.13566 18.499 2.56611 18.8645 3.04381 19.1596C3.98903 19.7388 5.00307 20.1973 6.06224 20.5245C7.08105 20.8513 8.12003 21.1115 9.17261 21.3034C10.203 21.4975 11.2219 21.6341 12.2191 21.7286C14.1086 21.9054 16.0081 21.9481 17.9036 21.8562C19.5552 21.7828 21.1996 21.593 22.8245 21.2881C24.1666 21.0434 25.4837 20.6776 26.7597 20.1951C27.8795 19.7571 28.8026 19.2566 29.4551 18.7178C29.7498 18.4853 30.0133 18.2158 30.2391 17.9159C30.2851 17.8536 30.3277 17.7888 30.3668 17.7219C30.4077 17.6629 30.4436 17.6005 30.474 17.5354L30.5621 17.3592C30.5851 17.3018 30.603 17.2456 30.6221 17.1933C30.6564 17.1013 30.682 17.0064 30.6987 16.9098C30.7064 16.8689 30.7166 16.8306 30.7217 16.7962C30.7268 16.7617 30.7217 16.7285 30.7294 16.7004C30.7383 16.5855 30.7447 16.528 30.7447 16.528C30.7447 16.528 30.7447 16.5868 30.7358 16.7004C30.7358 16.7298 30.7358 16.7617 30.7358 16.7974C30.7358 16.8332 30.7217 16.8702 30.7141 16.9123C30.6982 17.0093 30.6734 17.1047 30.64 17.1971C30.6209 17.2507 30.6043 17.3069 30.58 17.3656L30.4944 17.5431C30.4638 17.6085 30.428 17.6712 30.3872 17.7308C30.3451 17.7934 30.3093 17.8649 30.2595 17.9287C30.0337 18.2313 29.7698 18.5033 29.4743 18.7382C28.8192 19.2822 27.8961 19.7878 26.7763 20.2296C25.4984 20.7148 24.1791 21.0831 22.8347 21.3302C21.208 21.6387 19.5614 21.832 17.9074 21.9086C16.0092 22.0035 14.1066 21.9638 12.214 21.7899C11.2155 21.6954 10.1954 21.5587 9.16112 21.3659C8.10608 21.1737 7.06457 20.9136 6.04309 20.5871C4.97854 20.2584 3.95936 19.7977 3.00933 19.2158C2.52313 18.9149 2.08495 18.5425 1.70951 18.1113C1.52355 17.8882 1.3689 17.6408 1.24986 17.3758C1.12988 17.1073 1.06787 16.8164 1.06787 16.5223C1.06787 16.2281 1.12988 15.9373 1.24986 15.6687C1.3694 15.4044 1.524 15.1575 1.70951 14.9345C2.0848 14.503 2.52351 14.131 3.01061 13.8313C3.95999 13.2493 4.97881 12.789 6.04309 12.4613C7.06437 12.1338 8.10593 11.8732 9.16112 11.6812C10.1941 11.4884 11.2143 11.3517 12.2127 11.2573C14.1054 11.0837 16.008 11.0445 17.9061 11.1398C19.5607 11.2165 21.2077 11.4107 22.8347 11.7207C24.1785 11.9689 25.4969 12.3386 26.7738 12.8252C27.8948 13.2683 28.8167 13.7726 29.473 14.3165C29.7674 14.5524 30.0304 14.8248 30.2557 15.1273C30.3017 15.1905 30.3444 15.2562 30.3834 15.324C30.4236 15.3839 30.4595 15.4466 30.4906 15.5117L30.5762 15.6904C30.6004 15.7479 30.617 15.8053 30.6362 15.8577C30.6697 15.9505 30.6945 16.0463 30.7102 16.1437C30.7179 16.1846 30.7268 16.2229 30.7319 16.2586C30.737 16.2944 30.7319 16.3263 30.7319 16.3544C30.7511 16.4693 30.7511 16.528 30.7511 16.528Z" fill="#1993AB"/>
<path d="M25.3325 4.24625C25.3325 4.24625 25.2814 4.21561 25.1869 4.15304L25.1065 4.10069C25.0759 4.08282 25.0388 4.06749 25.0018 4.04834C24.9152 4.00278 24.8246 3.96517 24.7311 3.93598C24.6775 3.91938 24.6226 3.89768 24.5626 3.88108L24.3672 3.83766C24.297 3.82227 24.2257 3.81245 24.154 3.8083C24.0787 3.8083 24.002 3.78915 23.9203 3.7917C23.5449 3.78726 23.1704 3.83016 22.8057 3.91938C21.9795 4.1058 21.0181 4.52843 19.9877 5.14514C18.8244 5.85768 17.7282 6.67438 16.7126 7.58517C15.476 8.68241 14.3185 9.86557 13.2486 11.1258C12.0142 12.5671 10.8831 14.0938 9.86367 15.6943C9.3274 16.5409 8.81156 17.4296 8.33147 18.3629C7.839 19.3131 7.40824 20.2941 7.04187 21.2996C6.65305 22.3368 6.39568 23.4186 6.27577 24.5198C6.21528 25.0818 6.24068 25.6497 6.3511 26.204C6.41147 26.4811 6.50942 26.7488 6.64222 26.9994C6.7763 27.2512 6.9621 27.4718 7.18743 27.6468C7.41276 27.8217 7.67253 27.947 7.9497 28.0145C8.22546 28.0808 8.50898 28.1091 8.7924 28.0988C9.35664 28.0676 9.91286 27.9509 10.4421 27.7528C11.4788 27.3607 12.4624 26.8404 13.3699 26.204C14.2524 25.5987 15.0948 24.9368 15.8916 24.2223C16.6756 23.5264 17.4085 22.805 18.0941 22.0747C19.3885 20.6887 20.5832 19.2128 21.6693 17.6581C22.6246 16.309 23.4834 14.8942 24.2395 13.4241C24.8677 12.2134 25.3852 10.9485 25.7858 9.6447C26.1254 8.49555 26.2965 7.45749 26.2697 6.60967C26.2666 6.23434 26.2151 5.86099 26.1165 5.49882C26.0958 5.42348 26.0711 5.34932 26.0424 5.27666C26.0209 5.20823 25.994 5.14162 25.962 5.07747C25.9313 5.01618 25.9033 4.94979 25.8764 4.90127C25.8496 4.85275 25.8113 4.79784 25.7819 4.75188C25.7302 4.66822 25.6708 4.58957 25.6045 4.51694C25.5777 4.48502 25.5534 4.45438 25.5291 4.42884L25.4576 4.36372C25.3734 4.28711 25.33 4.24625 25.33 4.24625L25.4576 4.35861L25.5291 4.42245C25.5547 4.44799 25.5789 4.47864 25.607 4.51056C25.6749 4.58202 25.7353 4.66033 25.7871 4.74422C25.8177 4.79146 25.8522 4.83998 25.8841 4.89361L25.9709 5.06981C26.0046 5.13415 26.0328 5.2012 26.0552 5.27027C26.0782 5.34177 26.1127 5.41328 26.1305 5.49372C26.2313 5.85693 26.2854 6.23151 26.2914 6.60839C26.3208 7.46004 26.1535 8.49811 25.8164 9.65492C25.419 10.9626 24.9036 12.2314 24.2766 13.4458C23.5234 14.9204 22.6671 16.34 21.714 17.6939C20.6282 19.2519 19.4335 20.7312 18.1388 22.1206C17.4519 22.8535 16.719 23.5762 15.9337 24.2747C15.135 24.991 14.2905 25.6547 13.4056 26.2614C12.4959 26.9014 11.5092 27.4243 10.4689 27.8179C9.93056 28.0204 9.36424 28.1389 8.78985 28.169C8.49997 28.179 8.21006 28.1498 7.92799 28.0822C7.64199 28.0125 7.37393 27.8833 7.14135 27.7028C6.90877 27.5224 6.71693 27.2949 6.57838 27.0352C6.44254 26.7789 6.34245 26.5053 6.28088 26.2218C6.1695 25.6612 6.14367 25.0869 6.20426 24.5185C6.32639 23.4115 6.58676 22.3241 6.9793 21.2818C7.34721 20.276 7.77967 19.2951 8.27401 18.345C8.7541 17.4104 9.27122 16.5205 9.80621 15.6726C10.8283 14.0708 11.9624 12.5433 13.2 11.1016C14.2738 9.84102 15.4352 8.65786 16.6756 7.56091C17.6972 6.64662 18.8003 5.82774 19.9711 5.1145C21.0079 4.49906 21.9719 4.07899 22.8031 3.89512C23.1692 3.80421 23.5457 3.76129 23.9229 3.76744C24.0015 3.76929 24.0799 3.77526 24.1578 3.78531C24.23 3.78988 24.3017 3.80012 24.3723 3.81596L24.5664 3.85682C24.6264 3.87469 24.6813 3.89512 24.7349 3.913C24.8287 3.94288 24.9194 3.98179 25.0056 4.02919C25.0439 4.04834 25.0797 4.06494 25.1103 4.08282L25.1895 4.13644C25.2853 4.21178 25.3325 4.24625 25.3325 4.24625Z" fill="#1993AB"/>
<path d="M0.550315 23.5843C0.854246 23.5843 1.10063 23.3379 1.10063 23.034C1.10063 22.73 0.854246 22.4837 0.550315 22.4837C0.246384 22.4837 0 22.73 0 23.034C0 23.3379 0.246384 23.5843 0.550315 23.5843Z" fill="#1993AB"/>
<path d="M32 5.58603C31.9998 5.69482 31.9673 5.80109 31.9067 5.89142C31.8461 5.98175 31.76 6.05209 31.6594 6.09354C31.5589 6.135 31.4483 6.14572 31.3416 6.12434C31.2349 6.10296 31.137 6.05045 31.0601 5.97343C30.9833 5.89642 30.931 5.79836 30.9099 5.69165C30.8888 5.58493 30.8997 5.47435 30.9414 5.37386C30.9831 5.27338 31.0537 5.18751 31.1441 5.1271C31.2346 5.06668 31.3409 5.03444 31.4497 5.03444C31.5221 5.03444 31.5938 5.04871 31.6606 5.07645C31.7275 5.10419 31.7882 5.14484 31.8393 5.19607C31.8904 5.24731 31.9309 5.30813 31.9585 5.37504C31.9861 5.44196 32.0002 5.51365 32 5.58603Z" fill="#1993AB"/>
<path d="M4.41518 24.4561C4.41518 24.484 4.40691 24.5112 4.39142 24.5343C4.37593 24.5574 4.35392 24.5754 4.32818 24.586C4.30244 24.5966 4.27413 24.5993 4.24685 24.5938C4.21958 24.5883 4.19455 24.5748 4.17496 24.555C4.15537 24.5352 4.1421 24.5101 4.13682 24.4828C4.13155 24.4554 4.13451 24.4271 4.14534 24.4015C4.15616 24.3759 4.17436 24.354 4.19763 24.3387C4.22089 24.3235 4.24817 24.3154 4.27601 24.3157C4.31303 24.316 4.34843 24.331 4.3745 24.3573C4.40056 24.3836 4.41518 24.4191 4.41518 24.4561Z" fill="#1993AB"/>
<path d="M7.402 9.02841C7.402 9.05619 7.39376 9.08334 7.37833 9.10644C7.36289 9.12954 7.34096 9.14754 7.31529 9.15817C7.28963 9.1688 7.26139 9.17158 7.23414 9.16616C7.2069 9.16074 7.18188 9.14736 7.16223 9.12772C7.14259 9.10808 7.12921 9.08305 7.12379 9.05581C7.11837 9.02856 7.12115 9.00032 7.13178 8.97466C7.14242 8.94899 7.16042 8.92706 7.18352 8.91162C7.20661 8.89619 7.23377 8.88795 7.26154 8.88795C7.29879 8.88795 7.33452 8.90275 7.36086 8.92909C7.3872 8.95543 7.402 8.99116 7.402 9.02841Z" fill="#1993AB"/>
<path d="M29.2345 16.5284C29.2345 16.5562 29.2262 16.5835 29.2108 16.6066C29.1953 16.6297 29.1733 16.6477 29.1475 16.6583C29.1218 16.6689 29.0935 16.6716 29.0662 16.6661C29.0389 16.6605 29.0139 16.647 28.9943 16.6273C28.9747 16.6075 28.9614 16.5824 28.9562 16.555C28.9509 16.5277 28.9538 16.4994 28.9647 16.4738C28.9755 16.4481 28.9937 16.4263 29.017 16.411C29.0402 16.3957 29.0675 16.3877 29.0953 16.388C29.1137 16.388 29.1319 16.3916 29.1489 16.3987C29.1659 16.4058 29.1813 16.4161 29.1942 16.4292C29.2071 16.4422 29.2174 16.4577 29.2243 16.4748C29.2312 16.4918 29.2347 16.51 29.2345 16.5284Z" fill="#1993AB"/>
<path d="M31.1788 10.0037C31.1791 10.0316 31.171 10.0589 31.1557 10.0822C31.1404 10.1055 31.1185 10.1237 31.0927 10.1345C31.067 10.1453 31.0387 10.1482 31.0113 10.1428C30.9839 10.1374 30.9588 10.124 30.9391 10.1043C30.9194 10.0846 30.906 10.0594 30.9006 10.0321C30.8952 10.0047 30.8981 9.97635 30.9089 9.95063C30.9197 9.92492 30.9379 9.90299 30.9612 9.88766C30.9845 9.87232 31.0118 9.86427 31.0397 9.86452C31.0766 9.86452 31.112 9.87918 31.1381 9.90529C31.1642 9.93139 31.1788 9.96679 31.1788 10.0037Z" fill="#1993AB"/>
</svg>
