<svg width="20" height="20" viewBox="0 0 20 20" fill="none" xmlns="http://www.w3.org/2000/svg">
<path d="M14.5331 12.8083C14.3747 12.8083 14.2164 12.75 14.0914 12.625C13.8497 12.3833 13.8497 11.9833 14.0914 11.7417L15.7831 10.05L14.0914 8.35835C13.8497 8.11668 13.8497 7.71668 14.0914 7.47501C14.3331 7.23335 14.7331 7.23335 14.9747 7.47501L17.1081 9.60835C17.3497 9.85001 17.3497 10.25 17.1081 10.4917L14.9747 12.625C14.8497 12.75 14.6914 12.8083 14.5331 12.8083Z" fill="#CB3A31"/>
<path d="M16.6088 10.675H8.13379C7.79212 10.675 7.50879 10.3917 7.50879 10.05C7.50879 9.70832 7.79212 9.42499 8.13379 9.42499H16.6088C16.9505 9.42499 17.2338 9.70832 17.2338 10.05C17.2338 10.3917 16.9505 10.675 16.6088 10.675Z" fill="#CB3A31"/>
<path d="M9.80046 17.2916C5.50879 17.2916 2.50879 14.2916 2.50879 9.99998C2.50879 5.70831 5.50879 2.70831 9.80046 2.70831C10.1421 2.70831 10.4255 2.99165 10.4255 3.33331C10.4255 3.67498 10.1421 3.95831 9.80046 3.95831C6.24212 3.95831 3.75879 6.44165 3.75879 9.99998C3.75879 13.5583 6.24212 16.0416 9.80046 16.0416C10.1421 16.0416 10.4255 16.325 10.4255 16.6666C10.4255 17.0083 10.1421 17.2916 9.80046 17.2916Z" fill="#CB3A31"/>
</svg>
