<svg width="8" height="9" viewBox="0 0 8 9" fill="none" xmlns="http://www.w3.org/2000/svg">
<path d="M7.08341 6.65638L6.53341 6.78638C6.41008 6.81638 6.31341 6.90971 6.28675 7.03304L6.17008 7.52304C6.10675 7.78971 5.76675 7.87304 5.59008 7.66304L4.59341 6.51638C4.51341 6.42304 4.55675 6.27638 4.67675 6.24638C5.26675 6.10304 5.79675 5.77304 6.18675 5.30304C6.25008 5.22638 6.36341 5.21638 6.43341 5.28638L7.17341 6.02638C7.42675 6.27971 7.33675 6.59638 7.08341 6.65638Z" fill="#8E8E8E"/>
<path d="M0.900054 6.65638L1.45005 6.78638C1.57339 6.81638 1.67005 6.90971 1.69672 7.03304L1.81339 7.52304C1.87672 7.78971 2.21672 7.87304 2.39339 7.66304L3.39005 6.51638C3.47005 6.42304 3.42672 6.27638 3.30672 6.24638C2.71672 6.10304 2.18672 5.77304 1.79672 5.30304C1.73339 5.22638 1.62005 5.21638 1.55005 5.28638L0.810054 6.02638C0.556721 6.27971 0.646721 6.59638 0.900054 6.65638Z" fill="#8E8E8E"/>
<path d="M4.00008 1.16699C2.71008 1.16699 1.66675 2.21033 1.66675 3.50033C1.66675 3.98366 1.81008 4.42699 2.05675 4.79699C2.41675 5.33033 2.98675 5.70699 3.65008 5.80366C3.76341 5.82366 3.88008 5.83366 4.00008 5.83366C4.12008 5.83366 4.23675 5.82366 4.35008 5.80366C5.01341 5.70699 5.58341 5.33033 5.94341 4.79699C6.19008 4.42699 6.33342 3.98366 6.33342 3.50033C6.33342 2.21033 5.29008 1.16699 4.00008 1.16699ZM5.02008 3.42699L4.74341 3.70366C4.69675 3.75033 4.67008 3.84033 4.68675 3.90699L4.76675 4.25033C4.83008 4.52033 4.68675 4.62699 4.44675 4.48366L4.11341 4.28699C4.05341 4.25033 3.95341 4.25033 3.89341 4.28699L3.56008 4.48366C3.32008 4.62366 3.17675 4.52033 3.24008 4.25033L3.32008 3.90699C3.33341 3.84366 3.31008 3.75033 3.26341 3.70366L2.98008 3.42699C2.81675 3.26366 2.87008 3.10033 3.09675 3.06366L3.45341 3.00366C3.51341 2.99366 3.58341 2.94033 3.61008 2.88699L3.80675 2.49366C3.91341 2.28033 4.08675 2.28033 4.19341 2.49366L4.39008 2.88699C4.41675 2.94033 4.48675 2.99366 4.55008 3.00366L4.90675 3.06366C5.13008 3.10033 5.18341 3.26366 5.02008 3.42699Z" fill="#8E8E8E"/>
</svg>
