<svg width="16" height="16" viewBox="0 0 16 16" fill="none" xmlns="http://www.w3.org/2000/svg">
<mask id="path-1-inside-1_1890_6835" fill="white">
<path d="M12 8.5H4C3.72667 8.5 3.5 8.27333 3.5 8C3.5 7.72667 3.72667 7.5 4 7.5H12C12.2733 7.5 12.5 7.72667 12.5 8C12.5 8.27333 12.2733 8.5 12 8.5Z"/>
</mask>
<path d="M12 8.5H4C3.72667 8.5 3.5 8.27333 3.5 8C3.5 7.72667 3.72667 7.5 4 7.5H12C12.2733 7.5 12.5 7.72667 12.5 8C12.5 8.27333 12.2733 8.5 12 8.5Z" fill="#1993AB"/>
<path d="M12 7.5H4V9.5H12V7.5ZM4 7.5C4.27895 7.5 4.5 7.72105 4.5 8H2.5C2.5 8.82562 3.17438 9.5 4 9.5V7.5ZM4.5 8C4.5 8.27895 4.27895 8.5 4 8.5V6.5C3.17438 6.5 2.5 7.17438 2.5 8H4.5ZM4 8.5H12V6.5H4V8.5ZM12 8.5C11.721 8.5 11.5 8.27895 11.5 8H13.5C13.5 7.17438 12.8256 6.5 12 6.5V8.5ZM11.5 8C11.5 7.72105 11.721 7.5 12 7.5V9.5C12.8256 9.5 13.5 8.82562 13.5 8H11.5Z" fill="#1993AB" mask="url(#path-1-inside-1_1890_6835)"/>
</svg>
