<svg width="8" height="9" viewBox="0 0 8 9" fill="none" xmlns="http://www.w3.org/2000/svg">
<path d="M5.84335 3.09033C5.82001 3.08699 5.79668 3.08699 5.77335 3.09033C5.25668 3.07366 4.84668 2.65033 4.84668 2.13033C4.84668 1.60033 5.27668 1.16699 5.81001 1.16699C6.34001 1.16699 6.77335 1.59699 6.77335 2.13033C6.77001 2.65033 6.36001 3.07366 5.84335 3.09033Z" fill="#8E8E8E"/>
<path d="M6.93011 5.40013C6.55678 5.65013 6.03345 5.74347 5.55011 5.68013C5.67678 5.4068 5.74345 5.10347 5.74678 4.78347C5.74678 4.45013 5.67345 4.13347 5.53345 3.8568C6.02678 3.79013 6.55011 3.88347 6.92678 4.13347C7.45345 4.48013 7.45345 5.05013 6.93011 5.40013Z" fill="#8E8E8E"/>
<path d="M2.14664 3.09033C2.16997 3.08699 2.1933 3.08699 2.21664 3.09033C2.7333 3.07366 3.1433 2.65033 3.1433 2.13033C3.1433 1.59699 2.7133 1.16699 2.17997 1.16699C1.64997 1.16699 1.21997 1.59699 1.21997 2.13033C1.21997 2.65033 1.62997 3.07366 2.14664 3.09033Z" fill="#8E8E8E"/>
<path d="M2.18337 4.78353C2.18337 5.10686 2.25337 5.41353 2.38004 5.6902C1.91004 5.7402 1.42004 5.6402 1.06004 5.40353C0.533372 5.05353 0.533372 4.48353 1.06004 4.13353C1.41671 3.89353 1.92004 3.79686 2.39337 3.8502C2.25671 4.1302 2.18337 4.44686 2.18337 4.78353Z" fill="#8E8E8E"/>
<path d="M4.0401 5.79C4.01343 5.78667 3.98343 5.78667 3.95343 5.79C3.3401 5.77 2.8501 5.26667 2.8501 4.64667C2.85343 4.01333 3.36343 3.5 4.0001 3.5C4.63343 3.5 5.14676 4.01333 5.14676 4.64667C5.14343 5.26667 4.65676 5.77 4.0401 5.79Z" fill="#8E8E8E"/>
<path d="M2.9566 6.47988C2.45327 6.81655 2.45327 7.36988 2.9566 7.70322C3.52993 8.08655 4.46994 8.08655 5.04327 7.70322C5.5466 7.36655 5.5466 6.81322 5.04327 6.47988C4.47327 6.09655 3.53327 6.09655 2.9566 6.47988Z" fill="#8E8E8E"/>
</svg>
