<svg width="16" height="16" viewBox="0 0 16 16" fill="none" xmlns="http://www.w3.org/2000/svg">
<path d="M12.3133 11.22L12.5733 13.3267C12.6399 13.88 12.0466 14.2667 11.5733 13.98L9.2666 12.6067C9.1066 12.5134 9.0666 12.3134 9.15326 12.1534C9.4866 11.54 9.6666 10.8467 9.6666 10.1534C9.6666 7.71337 7.57326 5.72671 4.99993 5.72671C4.47326 5.72671 3.95993 5.80671 3.47993 5.96671C3.23326 6.04671 2.99326 5.82004 3.05326 5.56671C3.65993 3.14004 5.99326 1.33337 8.77993 1.33337C12.0333 1.33337 14.6666 3.79337 14.6666 6.82671C14.6666 8.62671 13.7399 10.22 12.3133 11.22Z" fill="#AEAEAE"/>
<path d="M8.66634 10.1534C8.66634 10.9467 8.37301 11.68 7.87967 12.26C7.21967 13.06 6.17301 13.5734 4.99967 13.5734L3.25967 14.6067C2.96634 14.7867 2.59301 14.54 2.63301 14.2L2.79967 12.8867C1.90634 12.2667 1.33301 11.2734 1.33301 10.1534C1.33301 8.98002 1.95967 7.94668 2.91967 7.33335C3.51301 6.94668 4.22634 6.72668 4.99967 6.72668C7.02634 6.72668 8.66634 8.26002 8.66634 10.1534Z" fill="#AEAEAE"/>
</svg>
