<svg width="12" height="13" viewBox="0 0 12 13" fill="none" xmlns="http://www.w3.org/2000/svg">
<path d="M8.095 1.5H3.905C2.085 1.5 1 2.585 1 4.405V8.595C1 10.415 2.085 11.5 3.905 11.5H8.095C9.915 11.5 11 10.415 11 8.595V4.405C11 2.585 9.915 1.5 8.095 1.5ZM4.985 7.95L3.86 9.075C3.785 9.15 3.69 9.185 3.595 9.185C3.5 9.185 3.4 9.15 3.33 9.075L2.955 8.7C2.805 8.555 2.805 8.315 2.955 8.17C3.1 8.025 3.335 8.025 3.485 8.17L3.595 8.28L4.455 7.42C4.6 7.275 4.835 7.275 4.985 7.42C5.13 7.565 5.13 7.805 4.985 7.95ZM4.985 4.45L3.86 5.575C3.785 5.65 3.69 5.685 3.595 5.685C3.5 5.685 3.4 5.65 3.33 5.575L2.955 5.2C2.805 5.055 2.805 4.815 2.955 4.67C3.1 4.525 3.335 4.525 3.485 4.67L3.595 4.78L4.455 3.92C4.6 3.775 4.835 3.775 4.985 3.92C5.13 4.065 5.13 4.305 4.985 4.45ZM8.78 8.81H6.155C5.95 8.81 5.78 8.64 5.78 8.435C5.78 8.23 5.95 8.06 6.155 8.06H8.78C8.99 8.06 9.155 8.23 9.155 8.435C9.155 8.64 8.99 8.81 8.78 8.81ZM8.78 5.31H6.155C5.95 5.31 5.78 5.14 5.78 4.935C5.78 4.73 5.95 4.56 6.155 4.56H8.78C8.99 4.56 9.155 4.73 9.155 4.935C9.155 5.14 8.99 5.31 8.78 5.31Z" fill="#575757"/>
</svg>
