<svg width="12" height="13" viewBox="0 0 12 13" fill="none" xmlns="http://www.w3.org/2000/svg">
<path d="M6.33877 10.4795C6.47614 10.5114 6.48873 10.6913 6.35493 10.7359L5.56493 10.9959C3.57993 11.6359 2.53493 11.1009 1.88993 9.11594L1.24993 7.14094C0.609926 5.15594 1.13993 4.10594 3.12493 3.46594C3.43025 3.36483 3.73425 3.67353 3.65718 3.98579C3.65308 4.0024 3.649 4.01912 3.64493 4.03594L3.15493 6.13094C2.60493 8.48594 3.40993 9.78594 5.76493 10.3459L6.33877 10.4795Z" fill="#575757"/>
<path d="M8.58509 2.10427L7.75009 1.90927C6.08009 1.51427 5.08509 1.83927 4.50009 3.04927C4.35009 3.35427 4.23009 3.72427 4.13009 4.14927L3.64009 6.24427C3.15009 8.33427 3.79509 9.36427 5.88009 9.85927L6.72009 10.0593C7.01009 10.1293 7.28009 10.1743 7.53009 10.1943C9.09009 10.3443 9.92009 9.61427 10.3401 7.80927L10.8301 5.71927C11.3201 3.62927 10.6801 2.59427 8.58509 2.10427ZM7.64509 7.16427C7.60009 7.33427 7.45009 7.44427 7.28009 7.44427C7.25009 7.44427 7.22009 7.43927 7.18509 7.43427L5.73009 7.06427C5.53009 7.01427 5.41009 6.80927 5.46009 6.60927C5.51009 6.40927 5.71509 6.28927 5.91509 6.33927L7.37009 6.70927C7.57509 6.75927 7.69509 6.96427 7.64509 7.16427ZM9.11009 5.47427C9.06509 5.64427 8.91509 5.75427 8.74509 5.75427C8.71509 5.75427 8.68509 5.74927 8.65009 5.74427L6.22509 5.12927C6.02509 5.07927 5.90509 4.87427 5.95509 4.67427C6.00509 4.47427 6.21009 4.35427 6.41009 4.40427L8.83509 5.01927C9.04009 5.06427 9.16009 5.26927 9.11009 5.47427Z" fill="#575757"/>
</svg>
