<svg width="8" height="9" viewBox="0 0 8 9" fill="none" xmlns="http://www.w3.org/2000/svg">
<path d="M3.00008 1.16699C2.12675 1.16699 1.41675 1.87699 1.41675 2.75033C1.41675 3.60699 2.08675 4.30033 2.96008 4.33033C2.98675 4.32699 3.01341 4.32699 3.03342 4.33033C3.04008 4.33033 3.04341 4.33033 3.05008 4.33033C3.05341 4.33033 3.05341 4.33033 3.05675 4.33033C3.91008 4.30033 4.58008 3.60699 4.58342 2.75033C4.58342 1.87699 3.87341 1.16699 3.00008 1.16699Z" fill="#8E8E8E"/>
<path d="M4.69332 5.21695C3.76332 4.59695 2.24665 4.59695 1.30999 5.21695C0.886654 5.50029 0.65332 5.88362 0.65332 6.29362C0.65332 6.70362 0.886654 7.08362 1.30665 7.36362C1.77332 7.67695 2.38665 7.83362 2.99999 7.83362C3.61332 7.83362 4.22665 7.67695 4.69332 7.36362C5.11332 7.08029 5.34665 6.70029 5.34665 6.28695C5.34332 5.87695 5.11332 5.49695 4.69332 5.21695Z" fill="#8E8E8E"/>
<path d="M6.66337 2.94703C6.7167 3.59369 6.2567 4.16036 5.62004 4.23703C5.6167 4.23703 5.6167 4.23703 5.61337 4.23703H5.60337C5.58337 4.23703 5.56337 4.23703 5.5467 4.24369C5.22337 4.26036 4.9267 4.15703 4.70337 3.96703C5.0467 3.66036 5.24337 3.20036 5.20337 2.70036C5.18004 2.43036 5.0867 2.18369 4.9467 1.97369C5.07337 1.91036 5.22004 1.87036 5.37004 1.85703C6.02337 1.80036 6.6067 2.28703 6.66337 2.94703Z" fill="#8E8E8E"/>
<path d="M7.33 6.03046C7.30333 6.35379 7.09666 6.63379 6.75 6.82379C6.41666 7.00712 5.99666 7.09379 5.58 7.08379C5.82 6.86712 5.96 6.59712 5.98666 6.31046C6.02 5.89712 5.82333 5.50046 5.43 5.18379C5.20666 5.00712 4.94666 4.86712 4.66333 4.76379C5.4 4.55046 6.32666 4.69379 6.89666 5.15379C7.20333 5.40046 7.36 5.71046 7.33 6.03046Z" fill="#8E8E8E"/>
</svg>
