<svg width="12" height="13" viewBox="0 0 12 13" fill="none" xmlns="http://www.w3.org/2000/svg">
<path d="M8.72512 9.15094C7.88512 9.15094 7.11012 8.75594 6.60512 8.06094C6.48512 7.89594 6.52012 7.66094 6.68512 7.53594C6.85012 7.41094 7.08512 7.45094 7.21012 7.61594C7.57512 8.11094 8.12512 8.39594 8.72512 8.39594C9.77012 8.39594 10.6251 7.54594 10.6251 6.49594C10.6251 5.44594 9.77512 4.59594 8.72512 4.59594C8.01512 4.59594 7.34512 4.97594 6.98012 5.58094L5.65512 7.78594C5.15512 8.62094 4.24012 9.13594 3.27012 9.13594C1.81012 9.13594 0.620117 7.94594 0.620117 6.48594C0.620117 5.02594 1.81012 3.83594 3.27012 3.83594C4.11012 3.83594 4.88512 4.23094 5.39012 4.92594C5.51012 5.09094 5.47512 5.32594 5.31012 5.45094C5.14012 5.57594 4.91012 5.53594 4.78512 5.37094C4.42512 4.88594 3.87512 4.60094 3.27512 4.60094C2.23012 4.60094 1.37512 5.45094 1.37512 6.50094C1.37512 7.55094 2.22512 8.40094 3.27512 8.40094C3.98512 8.40094 4.65512 8.02094 5.02012 7.41594L6.34512 5.21094C6.84512 4.37594 7.76012 3.86094 8.73012 3.86094C10.1901 3.86094 11.3801 5.05094 11.3801 6.51094C11.3801 7.97094 10.1851 9.15094 8.72512 9.15094Z" fill="#575757"/>
<path d="M3.25 7.5C3.80228 7.5 4.25 7.05228 4.25 6.5C4.25 5.94772 3.80228 5.5 3.25 5.5C2.69772 5.5 2.25 5.94772 2.25 6.5C2.25 7.05228 2.69772 7.5 3.25 7.5Z" fill="#575757"/>
<path d="M8.75 7.5C9.30228 7.5 9.75 7.05228 9.75 6.5C9.75 5.94772 9.30228 5.5 8.75 5.5C8.19772 5.5 7.75 5.94772 7.75 6.5C7.75 7.05228 8.19772 7.5 8.75 7.5Z" fill="#292D32"/>
</svg>
