<svg width="8" height="9" viewBox="0 0 8 9" fill="none" xmlns="http://www.w3.org/2000/svg">
<path d="M5.39675 1.16699H2.60341C1.39008 1.16699 0.666748 1.89033 0.666748 3.10366V5.89366C0.666748 7.11033 1.39008 7.83366 2.60341 7.83366H5.39341C6.60675 7.83366 7.33008 7.11033 7.33008 5.89699V3.10366C7.33342 1.89033 6.61008 1.16699 5.39675 1.16699ZM4.88675 5.07699L4.46008 5.32366L4.03341 5.57033C3.48341 5.88699 3.03341 5.62699 3.03341 4.99366V4.50033V4.00699C3.03341 3.37033 3.48341 3.11366 4.03341 3.43033L4.46008 3.67699L4.88675 3.92366C5.43675 4.24033 5.43675 4.76033 4.88675 5.07699Z" fill="#8E8E8E"/>
</svg>
